# xmcd
#
# Track frame offsets:
#   150
#   17462
#   31898
#   44282
#   66998
#   86153
#   111169
#   133046
#   160033
#   186836
#   212287
#   231839
#
# Disc length: 3372 seconds
#
# Revision: 0
# Processed by: cddbd v1.5.2PL0 Copyright (c) Steve Scherf et al.
# Submitted via: GXTranscoder 2.0.1939
#
DISCID=980d2a0c
DTITLE=Alma Ata - Projekt one
DYEAR=2003
DGENRE=Blues
TTITLE0=Can´t get enough
TTITLE1=Junior´s wailing
TTITLE2=Cocaine
TTITLE3=Going down
TTITLE4=Hoochie Coochie Man
TTITLE5=Tulsa Time
TTITLE6=Talk to you daughter
TTITLE7=Guitar (part one)
TTITLE8=Nutbush City Limits
TTITLE9=Redhouse
TTITLE10=I still haven´t found what I´m looking for
TTITLE11=Jesus just left Chicago
EXTD=
EXTT0=
EXTT1=
EXTT2=
EXTT3=
EXTT4=
EXTT5=
EXTT6=
EXTT7=
EXTT8=
EXTT9=
EXTT10=
EXTT11=
PLAYORDER=
